<?xml version="1.0" encoding="UTF-8"?>
<svg width="35px" height="35px" viewBox="0 0 35 35" version="1.1" xmlns="http://www.w3.org/2000/svg" xmlns:xlink="http://www.w3.org/1999/xlink">
    <!-- Generator: Sketch 52 (66869) - http://www.bohemiancoding.com/sketch -->
    <title>behance</title>
    <desc>Created with Sketch.</desc>
    <g id="Page-1" stroke="none" stroke-width="1" fill="none" fill-rule="evenodd">
        <g id="iPhone-XS-Copy-6" transform="translate(-307.000000, -747.000000)" fill="#FFFFFF">
            <g id="behance" transform="translate(307.000000, 747.000000)">
                <path d="M13.1041099,18.9481938 C12.6132102,18.5449982 11.9584727,18.3444449 11.1530534,18.3444449 L7.08526078,18.3444449 L7.08526078,23.4110741 L11.0780634,23.4110741 C11.4474003,23.4110741 11.7977046,23.3756544 12.1273099,23.2957939 C12.4619146,23.2165982 12.7587172,23.0910625 13.0089471,22.9055127 C13.259177,22.7270849 13.4664302,22.4824706 13.6171119,22.1713851 C13.7683199,21.8630535 13.8407664,21.4625166 13.8407664,20.9787958 C13.8407664,20.0303459 13.5943956,19.357277 13.1041099,18.9481938 Z" id="Path"></path>
                <path d="M12.6260735,15.056863 C13.0650056,14.7450945 13.2778076,14.2298323 13.2778076,13.5231745 C13.2778076,13.1307223 13.2071419,12.8064204 13.0650056,12.5547949 C12.91786,12.3030823 12.723127,12.1061164 12.4769601,11.9682489 C12.2327611,11.824724 11.9569862,11.7255882 11.6369334,11.6721472 C11.3226949,11.6123524 10.9929815,11.5889393 10.655486,11.5889393 L7.08526078,11.5889393 L7.08526078,15.5296509 L10.9466463,15.5296509 C11.6228897,15.5296509 12.182669,15.3735926 12.6260735,15.056863 Z" id="Path"></path>
                <path d="M0,0 L0,35 L35,35 L35,0 L0,0 Z M21.8476836,9.75968943 L28.9414841,9.75968943 L28.9414841,11.4866243 L21.8476836,11.4866243 L21.8476836,9.75968943 Z M17.4191614,23.2992383 C17.0765744,23.9499098 16.6099768,24.4771127 16.0349039,24.8840082 C15.4554052,25.2945165 14.7895598,25.5955559 14.0438708,25.7915522 C13.3066719,25.9875485 12.5409316,26.0861788 11.7569465,26.0861788 L3.27446275,26.0861788 L3.27446275,8.58569886 L11.5253639,8.58569886 C12.3625479,8.58569886 13.1179013,8.65804588 13.8084043,8.80770754 C14.4950235,8.9533951 15.0810252,9.19644854 15.5761642,9.5296422 C16.0635356,9.86292618 16.4451412,10.3061307 16.7182715,10.8645845 C16.984989,11.4146386 17.1187542,12.1035158 17.1187542,12.917939 C17.1187542,13.7989287 16.9188741,14.5347728 16.519114,15.1230326 C16.1161023,15.7102988 15.52432,16.1922509 14.7331996,16.5663599 C15.8104565,16.8758895 16.6080801,17.4210663 17.1369087,18.1961999 C17.668447,18.9766625 17.9286614,19.9103996 17.9286614,21.005269 C17.9285711,21.8926715 17.7585872,22.6568763 17.4191614,23.2992383 Z M31.7034058,20.5882576 L22.5595926,20.5882576 C22.5595926,21.589916 22.8982959,22.5383754 23.4214343,23.0474237 C23.9424954,23.5565624 24.695952,23.8125318 25.6719592,23.8125318 C26.3741136,23.8125318 26.9808892,23.6350513 27.4896666,23.2813548 C27.993928,22.9280196 28.3008383,22.5502977 28.4196102,22.1580342 L31.4846487,22.1580342 C30.992129,23.6833729 30.2445432,24.7722813 29.2250013,25.4278301 C28.2172011,26.0861788 26.9879342,26.4142242 25.5558066,26.4142242 C24.5576708,26.4142242 23.6595201,26.2526402 22.8528645,25.9343495 C22.0468411,25.6120846 21.3732281,25.1604803 20.8067357,24.5718593 C20.2544236,23.9803479 19.8254898,23.2814451 19.519844,22.4601575 C19.2174498,21.6433859 19.0648978,20.7390935 19.0648978,19.7591121 C19.0648978,18.8116463 19.2232303,17.9264115 19.5327599,17.1083754 C19.8487926,16.2874491 20.2855843,15.5791529 20.8599347,14.9850223 C21.4355495,14.3876401 22.1181946,13.9161652 22.9131988,13.5719524 C23.7082031,13.2289138 24.5848573,13.0563106 25.5558066,13.0563106 C26.6278249,13.0563106 27.5668909,13.2626034 28.3716498,13.6828664 C29.1736991,14.0972585 29.8311446,14.658964 30.3476896,15.3621119 C30.8642347,16.0639953 31.2315696,16.8667671 31.4613459,17.7671758 C31.6891351,18.666049 31.7689787,19.605115 31.7034058,20.5882576 Z" id="Shape" fill-rule="nonzero"></path>
                <path d="M25.7227465,15.5296509 C25.169907,15.5296509 24.712425,15.6267322 24.3460802,15.8248342 C23.9879962,16.0203099 23.6944714,16.263529 23.4699954,16.5499891 C23.2467765,16.8411391 23.094492,17.1484224 23.0061383,17.476998 C22.917156,17.7971317 22.8642694,18.0876251 22.8481072,18.3444449 L28.4776952,18.3444449 C28.395088,17.4227825 28.0931229,16.7414315 27.6802667,16.2623096 C27.2692063,15.7867521 26.5724329,15.5296509 25.7227465,15.5296509 Z" id="Path"></path>
            </g>
        </g>
    </g>
</svg>