<?xml version="1.0" encoding="UTF-8"?>
<svg width="35px" height="35px" viewBox="0 0 35 35" version="1.1" xmlns="http://www.w3.org/2000/svg" xmlns:xlink="http://www.w3.org/1999/xlink">
    <!-- Generator: Sketch 52 (66869) - http://www.bohemiancoding.com/sketch -->
    <title>linkedin</title>
    <desc>Created with Sketch.</desc>
    <g id="Page-1" stroke="none" stroke-width="1" fill="none" fill-rule="evenodd">
        <g id="iPhone-XS-Copy-6" transform="translate(-252.000000, -747.000000)">
            <g id="linkedin" transform="translate(252.000000, 747.000000)">
                <path d="M18.9640462,15.7345769 L18.9640462,15.6680769 C18.9504462,15.6903769 18.9316462,15.7126769 18.9198462,15.7345769 L18.9640462,15.7345769 Z" id="Path" fill="#000000"></path>
                <path d="M0,0 L0,35 L35,35 L35,0 L0,0 Z M10.8863077,29.0770769 L5.69353846,29.0770769 L5.69353846,13.4543077 L10.8863077,13.4543077 L10.8863077,29.0770769 Z M8.28992308,11.322 L8.25561538,11.322 C6.51369231,11.322 5.38461538,10.1219231 5.38461538,8.62192308 C5.38461538,7.089 6.54669231,5.92292308 8.32392308,5.92292308 C10.1015385,5.92292308 11.1939231,7.089 11.2279231,8.62192308 C11.2279231,10.1219231 10.1015385,11.322 8.28992308,11.322 Z M29.6153846,29.0771538 L24.4212308,29.0770769 L24.4212308,20.7188462 C24.4212308,18.6195385 23.6707692,17.1865385 21.7908462,17.1865385 C20.3551538,17.1865385 19.502,18.1513846 19.1261538,19.086 C18.9895385,19.4198462 18.9538462,19.8839231 18.9538462,20.3520769 L18.9538462,29.0771538 L13.7586923,29.0771538 C13.7586923,29.0771538 13.8283077,14.92 13.7586923,13.4543846 L18.9538462,13.4543846 L18.9538462,15.6681538 C19.6440769,14.6060769 20.8758462,13.0876154 23.6350769,13.0876154 C27.0533077,13.0876154 29.6153846,15.3199231 29.6153846,20.1182308 L29.6153846,29.0771538 Z" id="Shape" fill="#FFFFFF" fill-rule="nonzero"></path>
            </g>
        </g>
    </g>
</svg>